{"title":"Deewana Main Deewana 2013 Hindi Best HDScam Rip Sample Included ","uid":8176690,"size":732560671,"categoryP":"video","categoryS":"movies","magnet":"?xt=urn:btih:3ca9a335a6fe0893cb913fc724f507be7f6a9268&amp;dn=Deewana+Main+Deewana+2013+Hindi+Best+HDScam+Rip+Sample+Included+&amp;tr=udp%3A%2F%2Ftracker.openbittorrent.com%3A80&amp;tr=udp%3A%2F%2Fopen.demonii.com%3A1337&amp;tr=udp%3A%2F%2Ftracker.coppersurfer.tk%3A6969&amp;tr=udp%3A%2F%2Fexodus.desync.com%3A6969","seeders":1,"leechers":0,"uploader":"basicssom","files":2,"time":1361545489,"description":"Deewana Main Deewana 2013 Hindi Movies Best HDScam Rip Sample Included ~ rDX\n\nScreen Shots :\n &lt;a href=&quot;\nhttp://myimghosting.serveftp.com/13/DeewanaMainDeewana.html&quot; rel=&quot;nofollow&quot; target=&quot;_NEW&quot;&gt;\nhttp://myimghosting.serveftp.com/13/DeewanaMainDeewana.html&lt;/a&gt;\n &lt;a href=&quot;\nhttp://myimghost.cwahi.net/DeewanaMainDeewana.html&quot; rel=&quot;nofollow&quot; target=&quot;_NEW&quot;&gt;\nhttp://myimghost.cwahi.net/DeewanaMainDeewana.html&lt;/a&gt;\n\n\nFormat                                   : MPEG-4\nFormat profile                           : Base Media\nCodec ID                                 : isom\nFile size                                : 690 MiB\nDuration                                 : 1h 54mn\nOverall bit rate mode                    : Variable\nOverall bit rate                         : 844 Kbps\nWriting application                      : Lavf52.61.0\n\nVideo\nID                                       : 1\nFormat                                   : MPEG-4 Visual\nFormat profile                           : Simple@L3\nFormat settings, BVOP                    : No\nFormat settings, QPel                    : No\nFormat settings, GMC                     : No warppoints\nFormat settings, Matrix                  : Default (H.263)\nCodec ID                                 : 20\nDuration                                 : 1h 54mn\nBit rate                                 : 409 Kbps\nWidth                                    : 640 pixels\nHeight                                   : 272 pixels\nDisplay aspect ratio                     : 16:9\nFrame rate mode                          : Variable\nFrame rate                               : 23.976 fps\nOriginal frame rate                      : 29.970 fps\nMinimum frame rate                       : 14.985 fps\nMaximum frame rate                       : 29.970 fps\nColor space                              : YUV\nChroma subsampling                       : 4:2:0\nBit depth                                : 8 bits\nScan type                                : Progressive\nCompression mode                         : Lossy\nBits/(Pixel*Frame)                       : 0.098\nStream size                              : 335 MiB (48%)\nWriting library                          : XviD 1.2.1 (UTC 2008-12-04)\nLanguage                                 : English\n\nAudio\nID                                       : 2\nFormat                                   : AAC\nFormat/Info                              : Advanced Audio Codec\nFormat profile                           : LC\nCodec ID                                 : 40\nDuration                                 : 1h 54mn\nBit rate mode                            : Variable\nBit rate                                 : 64.0 Kbps\nChannel(s)                               : 2 channels\nChannel positions                        : Front: L R\nSampling rate                            : 24.0 KHz\nCompression mode                         : Lossy\nStream size                              : 52.3 MiB (8%)","torrent":{"xt":"urn:btih:3ca9a335a6fe0893cb913fc724f507be7f6a9268","amp;dn":"Deewana+Main+Deewana+2013+Hindi+Best+HDScam+Rip+Sample+Included+","amp;tr":["udp%3A%2F%2Ftracker.openbittorrent.com%3A80","udp%3A%2F%2Fopen.demonii.com%3A1337","udp%3A%2F%2Ftracker.coppersurfer.tk%3A6969","udp%3A%2F%2Fexodus.desync.com%3A6969"],"infoHash":"3ca9a335a6fe0893cb913fc724f507be7f6a9268","infoHashBuffer":{"type":"Buffer","data":[60,169,163,53,166,254,8,147,203,145,63,199,36,245,7,190,127,106,146,104]},"announce":[],"urlList":[]}}